<?xml version="1.0" standalone="no"?>
<!DOCTYPE svg PUBLIC "-//W3C//DTD SVG 20010904//EN"
 "http://www.w3.org/TR/2001/REC-SVG-20010904/DTD/svg10.dtd">
<svg version="1.0" xmlns="http://www.w3.org/2000/svg"
 width="480.000000pt" height="214.000000pt" viewBox="0 0 480.000000 214.000000"
 preserveAspectRatio="xMidYMid meet">

<g transform="translate(0.000000,214.000000) scale(0.100000,-0.100000)"
fill="#fff" stroke="none">
<path d="M365 1987 c-100 -25 -154 -56 -201 -114 -42 -51 -46 -65 -70 -223 -5
-33 -4 -34 10 -16 9 11 16 29 16 40 0 35 77 180 107 202 16 12 61 36 101 53
l73 32 277 -6 c375 -9 451 -17 561 -59 51 -20 117 -37 157 -41 92 -9 208 -33
257 -52 34 -14 38 -18 24 -28 -14 -10 -4 -14 56 -25 94 -17 211 -55 266 -87
83 -48 118 -90 175 -207 30 -62 65 -121 78 -131 23 -20 23 -20 7 0 -29 35 -46
79 -53 135 -4 30 -13 62 -21 70 -38 43 -41 175 -5 257 40 95 117 145 221 144
135 0 222 -88 239 -240 7 -69 -7 -147 -30 -161 -7 -5 -17 -38 -22 -77 -4 -38
-16 -79 -26 -93 -28 -39 -36 -58 -12 -30 11 14 44 71 72 127 59 120 115 178
212 224 60 28 239 79 280 79 15 0 16 3 6 15 -10 12 -7 17 16 26 56 21 134 38
229 49 61 7 133 25 192 46 117 42 193 50 564 59 l275 6 79 -36 c44 -20 90 -46
103 -58 29 -27 84 -135 102 -199 21 -79 28 -54 13 45 -23 151 -85 222 -235
268 -55 17 -107 20 -428 25 -344 6 -370 5 -450 -14 -47 -11 -110 -30 -139 -42
-36 -14 -93 -24 -172 -30 -125 -9 -172 -24 -251 -78 -35 -24 -57 -30 -118 -35
-78 -6 -126 -21 -192 -63 l-40 -25 -6 23 c-13 51 -61 125 -100 155 -145 110
-360 44 -417 -128 -17 -51 -25 -58 -44 -35 -25 29 -135 69 -206 74 -58 4 -79
10 -122 39 -76 49 -125 64 -245 73 -81 7 -133 17 -220 47 l-113 38 -380 0
c-331 0 -388 -2 -450 -18z"/>
<path d="M484 1890 c-12 -5 -32 -26 -44 -48 -13 -22 -32 -45 -44 -51 -20 -10
-20 -11 -1 -8 11 1 36 24 55 51 l35 48 78 -6 c58 -4 121 -20 240 -60 199 -67
310 -96 404 -106 68 -7 76 -10 115 -49 72 -71 209 -129 410 -175 23 -5 37 -23
77 -104 54 -104 63 -100 36 16 -20 85 -38 117 -87 152 -41 30 -75 40 -62 19 5
-8 -6 -9 -37 -4 -112 18 -173 40 -247 88 -111 72 -168 96 -263 108 -114 14
-250 44 -385 85 -61 18 -142 38 -180 44 -80 11 -73 11 -100 0z"/>
<path d="M4205 1889 c-33 -5 -113 -25 -177 -44 -127 -39 -335 -85 -384 -85
-49 0 -124 -27 -194 -69 -121 -74 -175 -99 -254 -115 -91 -19 -110 -20 -101
-6 16 27 -40 -3 -82 -43 -35 -33 -57 -89 -72 -181 -8 -53 -7 -58 6 -40 8 10
30 54 50 96 l35 76 77 17 c161 36 280 89 359 160 49 44 57 48 126 56 90 10
224 45 419 111 109 36 170 51 227 55 l78 6 21 -41 c21 -40 46 -62 73 -62 7 0
2 6 -12 13 -13 7 -35 30 -47 52 -31 56 -42 59 -148 44z"/>
<path d="M2597 1595 c-33 -39 -43 -45 -76 -45 -24 0 -48 -8 -65 -21 -37 -29
-26 -34 17 -9 40 23 73 20 80 -8 3 -15 5 -15 12 3 5 11 24 44 42 73 19 28 32
52 30 52 -1 0 -20 -20 -40 -45z"/>
<path d="M2185 1595 c11 -16 27 -46 37 -65 10 -19 18 -29 18 -22 0 25 38 33
77 15 58 -26 60 -26 28 1 -20 17 -42 26 -65 26 -26 0 -44 9 -74 38 -37 35 -39
35 -21 7z"/>
<path d="M2260 1603 c51 -26 233 -25 275 0 17 10 21 15 10 12 -65 -22 -148
-29 -213 -17 -38 6 -77 14 -88 17 -10 3 -3 -3 16 -12z"/>
<path d="M4255 1564 c-211 -25 -338 -55 -755 -181 -429 -129 -673 -183 -926
-204 -290 -24 -595 15 -865 110 -46 17 -85 29 -86 27 -5 -5 209 -124 277 -155
203 -91 371 -130 595 -138 313 -11 505 36 1085 265 442 174 626 228 874 254
115 12 118 13 66 19 -57 7 -213 9 -265 3z"/>
<path d="M393 1539 c174 -17 408 -80 617 -166 47 -20 237 -111 423 -204 433
-217 533 -259 732 -305 65 -15 119 -19 285 -19 192 0 212 2 314 29 132 34 252
79 372 139 93 46 225 125 189 112 -398 -143 -654 -179 -967 -139 -242 31 -386
80 -748 254 -281 134 -382 176 -531 219 -192 56 -467 92 -674 90 l-100 -2 88
-8z"/>
<path d="M2385 1510 c-4 -6 3 -10 14 -10 25 0 27 6 6 13 -8 4 -17 2 -20 -3z"/>
<path d="M1923 730 c-20 -8 -23 -17 -23 -69 0 -57 1 -60 32 -76 21 -10 34 -12
36 -5 2 5 12 10 22 10 10 0 21 7 24 16 8 22 7 97 -2 110 -10 16 -63 24 -89 14z
m14 -97 c-2 -16 -4 -3 -4 27 0 30 2 43 4 28 2 -16 2 -40 0 -55z m53 27 c0 -27
-4 -50 -10 -50 -5 0 -10 23 -10 50 0 28 5 50 10 50 6 0 10 -22 10 -50z"/>
<path d="M2052 658 l3 -83 33 -3 c18 -2 32 1 32 7 0 6 -9 11 -20 11 -16 0 -20
7 -20 30 0 23 4 30 20 30 11 0 20 5 20 10 0 6 -9 10 -20 10 -15 0 -20 7 -20
25 0 18 5 25 20 25 11 0 20 5 20 10 0 6 -16 10 -35 10 l-36 0 3 -82z"/>
<path d="M2160 678 c0 -35 -3 -81 -6 -103 -5 -36 -4 -38 9 -22 17 20 43 23 50
5 3 -9 8 -10 14 -3 5 6 8 49 5 98 l-4 87 -34 0 -34 0 0 -62z m37 -55 c-2 -21
-4 -6 -4 32 0 39 2 55 4 38 2 -18 2 -50 0 -70z"/>
<path d="M2272 658 l3 -83 33 -3 c18 -2 32 1 32 7 0 6 -9 11 -20 11 -16 0 -20
7 -20 30 0 23 4 30 20 30 11 0 20 5 20 10 0 6 -9 10 -20 10 -15 0 -20 7 -20
25 0 18 5 25 20 25 11 0 20 5 20 10 0 6 -16 10 -35 10 l-36 0 3 -82z"/>
<path d="M2372 658 c2 -54 7 -83 16 -86 8 -2 12 7 12 27 0 24 4 31 19 31 21 0
31 19 31 59 0 35 -17 51 -52 51 l-29 0 3 -82z m48 27 c0 -19 -4 -35 -10 -35
-5 0 -10 16 -10 35 0 19 5 35 10 35 6 0 10 -16 10 -35z"/>
<path d="M2497 733 c-3 -5 -8 -43 -12 -87 -6 -65 -5 -78 6 -74 8 3 15 14 17
26 2 12 7 22 12 22 5 0 10 -10 12 -22 2 -12 9 -23 16 -26 11 -3 12 11 7 69 -4
41 -8 80 -10 87 -5 13 -41 17 -48 5z m33 -80 c0 -13 -4 -23 -10 -23 -5 0 -10
17 -10 38 0 27 3 33 10 22 5 -8 10 -25 10 -37z"/>
<path d="M2595 717 c-4 -13 -5 -50 -3 -82 3 -55 5 -60 28 -64 14 -1 28 -8 31
-13 16 -26 24 7 21 91 -3 71 -7 91 -18 91 -11 0 -14 -17 -14 -75 0 -43 -4 -75
-10 -75 -6 0 -10 32 -10 75 0 73 -13 100 -25 52z"/>
<path d="M2710 655 c0 -69 3 -85 15 -85 9 0 15 9 15 23 0 12 5 29 10 37 7 11
10 5 10 -23 0 -26 4 -37 13 -35 8 3 13 32 15 87 3 75 1 82 -15 79 -12 -2 -20
-16 -24 -38 l-6 -35 -2 38 c-1 26 -6 37 -16 37 -12 0 -15 -16 -15 -85z"/>
<path d="M2830 721 c-13 -25 -13 -64 0 -77 7 -7 8 -19 1 -37 -7 -18 -7 -28 0
-33 13 -7 14 -6 27 31 l10 30 1 -32 c1 -22 6 -33 16 -33 12 0 15 16 15 85 l0
85 -30 0 c-19 0 -33 -7 -40 -19z m40 -37 c0 -21 -4 -33 -10 -29 -5 3 -10 19
-10 36 0 16 5 29 10 29 6 0 10 -16 10 -36z"/>
<path d="M1900 435 c0 -68 3 -85 15 -85 11 0 15 18 18 78 l3 77 2 -77 c2 -62
5 -78 17 -78 12 0 15 16 15 85 l0 85 -35 0 -35 0 0 -85z"/>
<path d="M2046 511 c-3 -4 -8 -42 -12 -85 -6 -65 -5 -78 7 -74 9 3 16 25 19
64 l5 59 8 -62 c6 -44 12 -63 22 -63 27 0 0 162 -28 166 -9 1 -19 -1 -21 -5z"/>
<path d="M2177 513 c-3 -5 -8 -43 -12 -85 -6 -68 -5 -78 9 -78 10 0 16 9 16
25 0 14 5 25 10 25 6 0 10 -11 10 -25 0 -16 6 -25 16 -25 13 0 14 11 9 73 -4
39 -8 78 -10 85 -5 13 -41 17 -48 5z m33 -74 c0 -16 -4 -29 -10 -29 -5 0 -10
16 -10 36 0 21 4 33 10 29 6 -3 10 -19 10 -36z"/>
<path d="M2294 507 c-3 -8 -4 -45 -2 -83 l3 -69 35 0 c33 0 35 2 38 38 2 25
-1 37 -9 37 -10 0 -10 3 -1 12 7 7 12 21 12 33 0 12 -5 26 -12 33 -16 16 -57
15 -64 -1z m46 -32 c0 -14 -4 -25 -10 -25 -5 0 -10 11 -10 25 0 14 5 25 10 25
6 0 10 -11 10 -25z m0 -75 c0 -16 -4 -30 -10 -30 -5 0 -10 14 -10 30 0 17 5
30 10 30 6 0 10 -13 10 -30z"/>
<path d="M2435 473 c-3 -27 -8 -65 -11 -85 -5 -30 -3 -38 10 -38 9 0 16 8 16
19 0 28 18 36 22 9 2 -12 9 -24 17 -26 12 -4 13 9 7 74 -8 89 -10 94 -36 94
-15 0 -20 -10 -25 -47z m35 -25 c0 -25 -4 -38 -9 -32 -8 8 -4 74 5 74 2 0 4
-19 4 -42z"/>
<path d="M2560 436 c0 -68 3 -86 14 -86 10 0 16 14 19 43 l4 42 1 -42 c1 -31
6 -43 17 -43 12 0 15 16 15 86 0 64 -3 85 -12 82 -7 -3 -16 -20 -19 -39 l-6
-34 -4 34 c-2 19 -10 36 -16 39 -10 3 -13 -18 -13 -82z"/>
<path d="M2690 436 c0 -66 3 -86 14 -86 8 0 17 17 22 43 l8 42 4 -42 c2 -30 8
-43 18 -43 12 0 14 15 12 83 -2 65 -6 82 -18 82 -9 0 -17 -13 -21 -35 l-6 -35
-4 34 c-2 19 -10 36 -16 39 -10 3 -13 -18 -13 -82z"/>
<path d="M2832 508 c-15 -15 -16 -74 -2 -83 10 -6 8 -23 -7 -62 -3 -7 1 -13 9
-13 8 0 19 12 25 28 l11 27 1 -27 c1 -18 7 -28 16 -28 13 0 15 14 13 83 -3 79
-4 82 -28 85 -14 2 -31 -3 -38 -10z m38 -44 c0 -21 -4 -33 -10 -29 -5 3 -10
19 -10 36 0 16 5 29 10 29 6 0 10 -16 10 -36z"/>
<path d="M1906 244 c-9 -68 -7 -114 4 -114 5 0 12 11 16 25 7 28 24 24 24 -6
0 -10 6 -19 14 -19 11 0 14 9 11 33 -3 17 -7 53 -10 80 -5 41 -9 47 -29 47
-20 0 -24 -6 -30 -46z m31 -36 c-2 -13 -4 -3 -4 22 0 25 2 35 4 23 2 -13 2
-33 0 -45z"/>
<path d="M2007 283 c-3 -5 -8 -41 -12 -80 -6 -63 -5 -73 9 -73 13 0 16 12 17
58 0 41 3 51 9 37 5 -11 9 -37 9 -57 1 -28 5 -38 17 -38 13 0 14 9 9 58 -10
90 -14 102 -35 102 -10 0 -21 -3 -23 -7z"/>
<path d="M2082 213 l3 -78 35 0 c34 0 35 1 38 43 3 37 0 43 -22 52 -19 7 -26
17 -26 35 0 16 -6 25 -15 25 -13 0 -15 -13 -13 -77z m48 -28 c0 -19 -4 -35
-10 -35 -5 0 -10 16 -10 35 0 19 5 35 10 35 6 0 10 -16 10 -35z"/>
<path d="M2176 215 c1 -83 14 -118 14 -39 0 35 3 45 10 34 5 -8 10 -30 10 -48
0 -26 4 -33 18 -30 11 2 19 16 23 43 l6 40 2 -42 c1 -31 5 -43 16 -43 12 0 15
16 15 80 0 72 -2 80 -19 80 -16 0 -21 -10 -27 -57 -6 -47 -9 -53 -15 -33 -4
14 -7 40 -8 58 -1 26 -5 32 -24 32 -22 0 -22 -3 -21 -75z"/>
<path d="M2310 210 l0 -80 36 0 c21 0 33 4 29 10 -3 6 -13 10 -21 10 -9 0 -14
11 -14 30 0 24 4 30 23 31 l22 0 -22 9 c-15 6 -23 18 -23 34 0 18 6 26 23 29
13 3 8 5 -15 6 l-38 1 0 -80z"/>
<path d="M2398 283 c8 -3 12 -29 12 -79 0 -59 3 -74 15 -74 12 0 15 15 15 74
0 50 4 76 13 79 6 3 -6 5 -28 5 -22 0 -34 -2 -27 -5z"/>
<path d="M2470 209 l0 -80 33 3 c31 3 32 5 35 51 3 42 1 47 -17 47 -17 0 -21
6 -21 30 0 20 -5 30 -15 30 -12 0 -15 -16 -15 -81z m37 -41 c-2 -13 -4 -5 -4
17 -1 22 1 32 4 23 2 -10 2 -28 0 -40z"/>
<path d="M2560 210 l0 -80 36 0 c21 0 33 4 29 10 -3 6 -13 10 -21 10 -9 0 -14
11 -14 30 0 22 5 30 18 30 16 1 16 1 0 11 -27 15 -23 57 5 62 13 3 8 5 -15 6
l-38 1 0 -80z"/>
<path d="M2640 209 l0 -80 33 3 32 3 2 78 3 77 -35 0 -35 0 0 -81z m37 24 c-3
-10 -5 -2 -5 17 0 19 2 27 5 18 2 -10 2 -26 0 -35z m0 -70 c-3 -10 -5 -2 -5
17 0 19 2 27 5 18 2 -10 2 -26 0 -35z"/>
<path d="M2734 276 c-3 -7 -4 -42 -2 -77 3 -62 4 -64 32 -67 32 -4 46 10 46
46 0 30 -24 24 -28 -6 -7 -48 -22 -18 -22 43 0 70 5 80 20 40 10 -27 30 -34
30 -11 0 32 -13 46 -41 46 -16 0 -32 -6 -35 -14z"/>
<path d="M2820 210 c0 -63 3 -80 14 -80 9 0 16 13 19 33 l3 32 8 -32 c5 -18
15 -33 22 -33 17 0 17 5 4 49 -6 20 -6 49 -1 72 11 47 -11 56 -27 12 l-10 -28
-1 28 c-1 17 -6 27 -16 27 -12 0 -15 -16 -15 -80z"/>
</g>
</svg>
